<?xml version="1.0" encoding="utf-8"?>
<!-- Generator: Adobe Illustrator 18.1.1, SVG Export Plug-In . SVG Version: 6.00 Build 0)  -->
<svg version="1.1" id="Layer_1" xmlns="http://www.w3.org/2000/svg" xmlns:xlink="http://www.w3.org/1999/xlink" x="0px" y="0px"
	 viewBox="0 0 1327.9 178.4" enable-background="new 0 0 1327.9 178.4" xml:space="preserve">
<path fill="#CC0000" d="M172.4,165.4c-40.7,0-81.4,0-122.1,0c0-25.4,0-50.8,0-76.3c-4.3,0-8.3,0-12.4,0c0-1.2,0-2.4,0-3.5
	c7-7,14.1-14.1,21.2-21c0.9-0.9,1.3-1.7,1.3-2.9c0-14.2,0-28.5,0-42.7c0-0.6,0-1.2,0-1.9c10.6,0,21,0,31.6,0c0,4.8,0,9.6,0,14.5
	c0.4-0.3,0.5-0.4,0.7-0.5c5.5-5.4,10.9-10.8,16.3-16.3c0.2-0.2,0.3-0.5,0.5-0.7c0.8,0,1.6,0,2.4,0c0.2,0.3,0.4,0.5,0.6,0.8
	c23.9,23.2,47.7,46.5,71.6,69.7c0.3,0.3,0.7,0.5,1,0.7c0,1.3,0,2.6,0,3.8c-4.2,0-8.3,0-12.7,0c0,0.6,0,1.2,0,1.8
	c0,11.4,0,22.9,0,34.3C172.4,138.6,172.4,152,172.4,165.4z"/>
<path fill="#CC0000" d="M308.6,136.5v16.6h-29.9l-22.2-43.1h-11.2v26.5h12.3v16.6h-51.4v-16.6h13.5V71.3h-13.5V54.7h59.3
	c11.2,0,19.2,2.8,24.1,8.5c4.9,5.6,7.4,12,7.4,19.2c0,11.2-5.7,19.4-17,24.5l16,29.7H308.6z M245.2,94.3h8.8
	c10.8,0,16.3-3.9,16.3-11.6c0-3.8-1.2-6.7-3.7-8.6c-2.5-1.9-5.9-2.8-10.2-2.8h-11.1V94.3z"/>
<path fill="#CC0000" d="M366.5,53.1c17,0,30.3,4.9,40,14.7c9.7,9.8,14.6,21.8,14.6,35.9c0,14.2-4.9,26.1-14.6,35.9
	c-9.8,9.8-23.1,14.7-40,14.7c-17.6,0-31.1-5-40.5-15.1c-9.4-10.1-14.1-21.9-14.1-35.5c0-14.1,4.8-26,14.5-35.9
	C336.1,58,349.4,53.1,366.5,53.1z M366.5,71.1c-7.5,0-13.9,2.8-19.2,8.5c-5.3,5.7-7.9,14-7.9,24.9c0,9.7,2.6,17.4,7.8,23.2
	c5.2,5.8,11.6,8.7,19.3,8.7c7.5,0,13.9-2.8,19.2-8.5c5.3-5.7,7.9-13.9,7.9-24.6c0-9.6-2.5-17.4-7.6-23.3S374.5,71.1,366.5,71.1z"/>
<path fill="#CC0000" d="M441.9,153.2v-16.6h13.8v-26.6l-26.6-38.6h-12V54.7h49.2v16.6h-9.7l14.4,24l14.6-24h-10.1V54.7h43.3v16.6
	h-12.1l-25.4,38.6v26.6H495v16.6H441.9z"/>
<path fill="#CC0000" d="M615.4,136.5v16.6H567v-16.6h12.6l-4.7-16.9h-25.5l-5.2,16.9h13.1v16.6h-43.5v-16.6H526l19.2-65.2H532V54.7
	h64.2v16.6H583l20.6,65.2H615.4z M570.9,105.2l-8.2-29.7l-8.8,29.7H570.9z"/>
<path fill="#CC0000" d="M619.3,153.2v-16.6h14.1V71.3h-14.1V54.7h54v16.6h-14.3v65.2h29v-30.5h19.2v47.1H619.3z"/>
<path d="M814.5,136.5v16.6h-29.9l-22.2-43.1h-11.2v26.5h12.3v16.6H712v-16.6h13.5V71.3H712V54.7h59.3c11.2,0,19.2,2.8,24.1,8.5
	c4.9,5.6,7.4,12,7.4,19.2c0,11.2-5.7,19.4-17,24.5l16,29.7H814.5z M751.1,94.3h8.8c10.8,0,16.3-3.9,16.3-11.6c0-3.8-1.2-6.7-3.7-8.6
	c-2.5-1.9-5.9-2.8-10.2-2.8h-11.1V94.3z"/>
<path d="M819,153.2v-16.6h11.8V71.3H819V54.7h86.6v31.2h-18.8V71.3h-30.5V94H881v16.6h-24.6v25.9h30.5v-14.7h18.8v31.4H819z"/>
<path d="M1011.9,136.5v16.6h-48.3v-16.6h12.6l-4.7-16.9H946l-5.2,16.9h13.1v16.6h-43.5v-16.6h12.2l19.2-65.2h-13.1V54.7h64.2v16.6
	h-13.2l20.6,65.2H1011.9z M967.5,105.2l-8.2-29.7l-8.8,29.7H967.5z"/>
<path d="M1015.8,153.2v-16.6h14.1V71.3h-14.1V54.7h54v16.6h-14.3v65.2h29v-30.5h19.2v47.1H1015.8z"/>
<path d="M1123,153.2v-16.6h14.8V71.3H1123v22.9h-16.9V54.7h89.1v39.6h-16.7V71.3h-15.2v65.2h14.8v16.6H1123z"/>
<path d="M1224.2,153.2v-16.6h13.8v-26.6l-26.6-38.6h-12V54.7h49.2v16.6h-9.7l14.4,24l14.6-24h-10.1V54.7h43.3v16.6H1289l-25.4,38.6
	v26.6h13.7v16.6H1224.2z"/>
<g>
	<path fill="#FFFFFF" d="M162.8,137.6v16.6h-29.9l-22.2-43.1H99.4v26.5h12.3v16.6H60.3v-16.6h13.5V72.3H60.3V55.7h59.3
		c11.2,0,19.2,2.8,24.1,8.5c4.9,5.6,7.4,12,7.4,19.2c0,11.2-5.7,19.4-17,24.5l16,29.7H162.8z M99.4,95.3h8.8
		c10.8,0,16.3-3.9,16.3-11.6c0-3.8-1.2-6.7-3.7-8.6c-2.5-1.9-5.9-2.8-10.2-2.8H99.4V95.3z"/>
</g>
</svg>
